<?xml version="1.0" encoding="UTF-8" standalone="no"?>
<!DOCTYPE svg PUBLIC "-//W3C//DTD SVG 1.1//EN" "http://www.w3.org/Graphics/SVG/1.1/DTD/svg11.dtd">
<svg width="100%" height="100%" viewBox="0 0 36 36" version="1.1" xmlns="http://www.w3.org/2000/svg" xmlns:xlink="http://www.w3.org/1999/xlink" xml:space="preserve" xmlns:serif="http://www.serif.com/" style="fill-rule:evenodd;clip-rule:evenodd;stroke-linecap:round;stroke-linejoin:round;stroke-miterlimit:1.5;">
    <rect id="videah_awoo" x="0" y="0" width="36" height="36" style="fill:none;"/>
    <g id="outine">
        <path id="rear-hair" serif:id="rear hair" d="M28.696,6.279c-0.153,0.384 -0.59,0.571 -0.975,0.417c-0.384,-0.153 -0.571,-0.59 -0.417,-0.975l1,-2.5c0.153,-0.384 0.59,-0.571 0.975,-0.417c0.384,0.153 0.571,0.59 0.417,0.975l-1,2.5Zm1.19,3.364c-0.355,0.213 -0.816,0.098 -1.029,-0.257c-0.213,-0.355 -0.098,-0.816 0.257,-1.029l2.5,-1.5c0.355,-0.213 0.816,-0.098 1.029,0.257c0.213,0.355 0.098,0.816 -0.257,1.029l-2.5,1.5Zm0.614,3.107c-0.414,0 -0.75,-0.336 -0.75,-0.75c-0,-0.414 0.336,-0.75 0.75,-0.75l2.5,0c0.414,0 0.75,0.336 0.75,0.75c-0,0.414 -0.336,0.75 -0.75,0.75l-2.5,0Zm-28.5,8.348c0,0 0.696,-0.579 1.657,-1.386c0.292,-0.244 0.607,-0.51 0.935,-0.787c0.289,-0.244 0.588,-0.496 0.888,-0.751c0.261,-0.221 0.523,-0.444 0.781,-0.664c-1.067,-2.944 -0.508,-5.818 0.577,-7.338c0.228,1.062 0.487,2.057 0.796,2.942c0.188,-2.269 1.177,-4.741 3.838,-6.114c-0.071,1.008 -0.071,1.933 -0.012,2.772c1.495,-1.513 3.72,-2.503 6.596,-0.801c-0.641,0.545 -1.234,1.113 -1.753,1.692c1.645,-0.06 3.305,0.228 4.197,-0.579c0.46,-0.415 0.979,-0.875 1.534,-1.37c0.648,-0.578 1.343,-1.203 2.049,-1.859c0.208,-0.195 0.502,-0.269 0.778,-0.197c0.275,0.071 0.496,0.279 0.584,0.55c0.163,0.479 0.347,1.051 0.503,1.622c0.158,0.577 0.288,1.152 0.339,1.629c0.111,1.047 -1.273,3.414 -1.899,4.541c0.84,-0.794 2.234,-1.984 3.112,-2.248c0,-0 1.294,1.964 0.274,4.138c-1.019,2.174 -3.397,3.941 -3.941,5.3c-0.543,1.359 0.626,2.419 0.975,3.983c0.331,1.488 0.117,2.74 0.117,2.74c-0.253,-0.541 -0.797,-1.135 -1.452,-1.637c0.259,0.799 0.527,1.84 0.527,2.724l0,2l-20,-0c0.181,-1.686 0.712,-3.063 1.84,-4.644c-0.611,0.084 -1.264,0.372 -1.264,0.372c0.273,-1.778 0.909,-2.996 1.79,-3.992c0.434,-0.491 0.927,-0.927 1.466,-1.351c-2.423,0.473 -4.901,-0.623 -5.832,-1.287Z" style="fill:none;stroke:#000;stroke-width:4px;"/>
    </g>
    <path id="rear-hair1" serif:id="rear hair" d="M14.237,14.525l-6.502,5.678c-2.835,-3.745 -2.316,-8.044 -0.897,-10.031c0.228,1.062 0.487,2.057 0.796,2.942c0.188,-2.269 1.177,-4.741 3.838,-6.114c-0.071,1.008 -0.071,1.933 -0.012,2.772c1.495,-1.513 3.72,-2.503 6.596,-0.801c-2.041,1.736 -3.593,3.695 -3.819,5.554Z" style="fill:#2d1413;"/>
    <path d="M5.131,21.715c-0.717,0.044 -1.628,-1.365 -1.474,-2.003c0.292,-0.244 0.607,-0.51 0.935,-0.787c0.645,0.073 2.139,1.968 2.213,2.768c-0.594,0.051 -1.156,0.052 -1.674,0.022Zm2.871,-0.239c-1.366,-0.704 -2.311,-1.811 -2.522,-3.302c0.315,-0.267 0.631,-0.536 0.938,-0.799c1.573,0.884 2.451,2.298 2.919,3.683c-0.436,0.154 -0.893,0.303 -1.335,0.418Z" style="fill:#2d1817;"/>
    <path d="M4.592,18.925c0.289,-0.244 0.588,-0.496 0.888,-0.751c0.645,1.24 1.535,2.379 2.522,3.302c-0.375,0.099 -0.739,0.173 -1.068,0.205c-0.044,0.004 -0.087,0.008 -0.129,0.012c-0.524,-0.478 -1.035,-1.026 -1.468,-1.6c-0.29,-0.382 -0.546,-0.776 -0.745,-1.168Zm0.539,2.79c-1.858,-0.108 -3.131,-0.617 -3.131,-0.617c0,0 0.696,-0.579 1.657,-1.386c0.206,0.373 0.45,0.744 0.722,1.105c0.233,0.308 0.487,0.609 0.752,0.898Zm1.287,-4.34c0.942,-0.806 1.809,-1.559 2.329,-2.04c1.385,-1.281 3.328,-2.8 4.361,-3.57c0.892,1.235 4.488,2.098 4.892,5.235c0.633,4.91 -1,12 -2.9,15l-11.1,0c0.181,-1.686 0.712,-3.063 1.84,-4.644c-0.611,0.084 -1.264,0.372 -1.264,0.372c0.273,-1.778 0.909,-2.996 1.79,-3.992c0.817,0.028 1.662,-0.06 2.486,-0.323c0.907,-0.289 2.422,-1.189 2.999,-1.725c0.481,-0.446 0.53,-1.185 0.13,-1.691c-0.103,0.093 -0.213,0.188 -0.327,0.286c-0.024,-0.136 -1.083,0.339 -2.317,0.775c-1.165,-0.952 -2.23,-2.249 -2.919,-3.683Z" style="fill:#5a292d;"/>
    <path d="M25.948,8.83c0.158,0.577 0.288,1.152 0.339,1.629c0.111,1.047 -1.273,3.414 -1.899,4.541c0.84,-0.794 2.234,-1.984 3.112,-2.248c0,-0 1.294,1.964 0.274,4.138c-1.019,2.174 -3.397,3.941 -3.941,5.3c-0.543,1.359 0.626,2.419 0.975,3.983c0.331,1.488 0.117,2.74 0.117,2.74c-0.253,-0.541 -0.797,-1.135 -1.452,-1.637c0.259,0.799 0.527,1.84 0.527,2.724l0,2l-8.9,0c-0.246,-4.011 0.53,-5.772 1.676,-7.638c-0.619,0.261 -1.214,0.671 -1.823,1.314c-1.041,-1.793 -1.212,-4.937 -0.447,-6.81c-0.967,-1.355 -3.029,-4.391 -1.398,-7.101c0.192,-0.143 0.353,-0.261 0.473,-0.346c2.158,-1.53 5.503,-0.055 6.919,-1.335c0.46,-0.415 0.979,-0.875 1.534,-1.37c0,-0 3.793,0.328 3.914,0.116Z" style="fill:#915856;"/>
    <path d="M22.034,8.714l0.527,1.015c0.198,0.38 0.656,0.542 1.049,0.371l1.793,-0.781c0.235,-0.103 0.424,-0.277 0.545,-0.489c-0.156,-0.571 -0.34,-1.143 -0.503,-1.622c-0.088,-0.271 -0.309,-0.479 -0.584,-0.55c-0.276,-0.072 -0.57,0.002 -0.778,0.197c-0.706,0.656 -1.401,1.281 -2.049,1.859Z" style="fill:#281515;"/>
    <path d="M6.366,23.736c0.434,-0.491 0.927,-0.927 1.466,-1.351c0.215,-0.041 0.428,-0.095 0.641,-0.163c1.32,-0.422 2.637,-1.444 3.508,-2.225c0.4,0.506 0.351,1.245 -0.13,1.691c-0.577,0.536 -2.092,1.436 -2.999,1.725c-0.824,0.263 -1.669,0.351 -2.486,0.323Z" style="fill:#160a0b;"/>
    <path d="M2,21.098c0,0 2.326,0.257 4.685,-0.269c2.31,-0.514 2.931,-1.858 4.012,-1.699c0.596,0.088 0.858,0.582 0.957,1.153c-0.855,0.729 -2.017,1.567 -3.181,1.939c-2.613,0.834 -5.46,-0.402 -6.473,-1.124Z" style="fill:#8d5654;"/>
    <path d="M15,14.5c-0,0 0.428,-0.428 0.826,-0.826c0.432,-0.432 1.017,-0.674 1.627,-0.674c0.03,0 0.047,0 0.047,0" style="fill:none;stroke:#000;stroke-width:2px;"/>
    <g>
        <path d="M28,6l1,-2.5" style="fill:none;stroke:#fff;stroke-width:1.5px;"/>
        <path d="M29.5,9l2.5,-1.5" style="fill:none;stroke:#fff;stroke-width:1.5px;"/>
        <path d="M30.5,12l2.5,-0" style="fill:none;stroke:#fff;stroke-width:1.5px;"/>
    </g>
    <path id="front-hair" serif:id="front hair" d="M10.067,12.45c1.657,-0.789 3.346,0.823 3.897,3.472c-1.758,-1.069 -3.407,-1.426 -4.939,-0.848l1.042,-2.624Z" style="fill:#2d1413;"/>
</svg>
