<?xml version="1.0" encoding="UTF-8" standalone="no"?>
<!DOCTYPE svg PUBLIC "-//W3C//DTD SVG 1.1//EN" "http://www.w3.org/Graphics/SVG/1.1/DTD/svg11.dtd">
<svg width="100%" height="100%" viewBox="0 0 36 36" version="1.1" xmlns="http://www.w3.org/2000/svg" xmlns:xlink="http://www.w3.org/1999/xlink" xml:space="preserve" xmlns:serif="http://www.serif.com/" style="fill-rule:evenodd;clip-rule:evenodd;stroke-linecap:round;stroke-linejoin:round;stroke-miterlimit:1.5;">
    <rect id="videah_sob" x="0" y="0" width="36" height="36" style="fill:none;"/>
    <clipPath id="_clip1">
        <rect x="0" y="0" width="36" height="36"/>
    </clipPath>
    <g clip-path="url(#_clip1)">
        <g id="outline">
            <path d="M13.769,9.527c1.159,-1.345 2.024,-2.723 2.082,-4.178c0.364,0.508 0.645,1.065 0.814,1.649c0.819,-0.864 2.188,-1.548 4.335,-1.498c-0.57,0.387 -1.046,0.793 -1.428,1.226c1.868,-0.647 3.829,-0.431 4.928,0.774c-2.17,0.249 -5.011,1.448 -5.5,3l-0,0.5l0.456,-0c0.184,-0 0.366,0.007 0.546,0.021l0,-0.021c3.806,-3.64 10.001,-1.846 13.998,-3c-0.025,0.697 -0.31,4.555 -3,8.081c0.386,0.098 0.712,0.344 0.908,0.751c0.493,1.019 -0.456,2.099 -1.185,2.484c-0.003,0.001 -0.005,0.003 -0.008,0.004c-0.224,0.397 -0.499,0.743 -0.841,1.018c0.577,0.571 0.892,1.315 0.847,2.256c0.275,0.108 0.52,0.235 0.711,0.385c1.191,0.933 1.574,2.39 0.606,3.337c-0.963,0.944 -2.499,0.384 -3.325,-0.291c-0.49,0.958 -1.238,1.828 -2.213,2.475c0.058,-0.597 0.078,-1.107 0.06,-1.561c-2.479,3.179 -5.042,5.561 -7.56,5.561l-2,-0c-2.518,-0 -5.081,-2.382 -7.56,-5.561c-0.018,0.454 0.002,0.964 0.06,1.561c-0.975,-0.647 -1.723,-1.517 -2.213,-2.475c-0.826,0.675 -2.362,1.235 -3.325,0.291c-0.968,-0.947 -0.585,-2.404 0.606,-3.337c0.191,-0.15 0.436,-0.277 0.711,-0.385c-0.045,-0.941 0.27,-1.685 0.847,-2.256c-0.342,-0.275 -0.617,-0.621 -0.841,-1.018c-0.003,-0.001 -0.005,-0.003 -0.008,-0.004c-0.729,-0.385 -1.678,-1.465 -1.185,-2.484c0.197,-0.407 0.523,-0.654 0.908,-0.751c-2.689,-3.526 -2.973,-7.384 -2.999,-8.081c3.287,0.949 8.059,-0.095 11.768,1.527Z" style="fill:none;stroke:#000;stroke-width:4px;"/>
        </g>
        <path id="rear-hair" serif:id="rear hair" d="M18,12l0,1l-5,0l0,-1l0.484,-2.149c1.3,-1.448 2.304,-2.93 2.367,-4.502c0.364,0.508 0.645,1.065 0.814,1.649c0.819,-0.864 2.188,-1.548 4.335,-1.498c-0.57,0.387 -1.046,0.793 -1.428,1.226c1.868,-0.647 3.829,-0.431 4.928,0.774c-2.17,0.249 -5.011,1.448 -5.5,3l0,1.5l-1,0Z" style="fill:#2d1413;"/>
        <g id="ears">
            <path d="M13.999,20l-5,-0c0.334,0.34 -1.824,-1.324 -3.554,-3.366c-3.095,-3.655 -3.415,-7.878 -3.444,-8.628c4.748,3.239 8.234,2.885 11.998,7.994l-0,4Zm8.003,-0l0,-5c3.765,-5.109 5.924,-4.076 11.998,-6.994c-0.028,0.75 -0.349,4.973 -3.444,8.628c-1.73,2.042 -3.888,3.706 -3.554,3.366l-5,-0Z" style="fill:#8d5654;"/>
            <path d="M31.318,10.966c-0.257,-0.101 -0.384,-0.391 -0.284,-0.648c0.101,-0.257 0.391,-0.384 0.648,-0.284l1.281,0.5c0.234,0.092 0.364,0.343 0.303,0.586c-0.258,1.041 -0.681,1.817 -2.763,2.575c0.168,0.169 0.313,0.348 0.432,0.558c0.091,0.162 0.086,0.36 -0.014,0.516c-0.338,0.531 -0.95,1.005 -1.606,1.321c-0.671,0.323 -1.384,0.475 -1.884,0.405c-0.273,-0.038 -0.464,-0.29 -0.426,-0.564c0.038,-0.273 0.29,-0.464 0.564,-0.426c0.35,0.048 0.842,-0.089 1.312,-0.316c0.375,-0.18 0.738,-0.422 0.998,-0.703c-0.185,-0.214 -0.422,-0.387 -0.685,-0.591c-0.148,-0.115 -0.22,-0.302 -0.186,-0.486c0.035,-0.184 0.169,-0.334 0.348,-0.388c1.876,-0.565 2.513,-1.041 2.805,-1.726l-0.843,-0.329Zm-27,-0.932c0.257,-0.1 0.547,0.027 0.648,0.284c0.1,0.257 -0.027,0.547 -0.284,0.648c-0,-0 -0.843,0.329 -0.843,0.329c0.292,0.685 0.929,1.161 2.805,1.726c0.179,0.054 0.313,0.204 0.348,0.388c0.034,0.184 -0.038,0.371 -0.186,0.486c-0.263,0.204 -0.5,0.377 -0.685,0.591c0.26,0.281 0.623,0.523 0.998,0.703c0.47,0.227 0.962,0.364 1.312,0.316c0.274,-0.038 0.526,0.153 0.564,0.426c0.038,0.274 -0.153,0.526 -0.426,0.564c-0.5,0.07 -1.213,-0.082 -1.884,-0.405c-0.656,-0.316 -1.268,-0.79 -1.606,-1.321c-0.1,-0.156 -0.105,-0.354 -0.014,-0.516c0.119,-0.21 0.264,-0.389 0.432,-0.558c-2.082,-0.758 -2.505,-1.534 -2.763,-2.575c-0.061,-0.243 0.069,-0.494 0.303,-0.586l1.281,-0.5Z" style="fill:#2e1d1d;"/>
            <path d="M31,9.5c0,-0.276 0.224,-0.5 0.5,-0.5c0.276,0 0.5,0.224 0.5,0.5l0,3c0,0.276 -0.224,0.5 -0.5,0.5c-0.276,0 -0.5,-0.224 -0.5,-0.5l0,-3Z" style="fill:#787d99;"/>
            <path d="M27.847,13.633c0.005,-0.009 0.015,-0.016 0.016,-0.027c0.102,-1.436 -0.006,-2.873 1.427,-5.121c0.508,-0.012 1.01,-0.025 1.501,-0.047c0.342,1.503 0.133,2.77 -0.66,3.977c-0.731,0.448 -1.502,0.83 -2.284,1.218Zm3.441,-2.019c-0.236,-0.671 -0.086,-1.755 0.487,-3.238c0.519,-0.044 1.021,-0.107 1.498,-0.201c0.188,0.314 0.173,0.748 -0.044,1.301c-0.566,0.884 -1.223,1.568 -1.941,2.138Zm-25.418,0.801c-0.872,-1.34 -1.073,-2.601 -0.659,-3.977c0.49,0.022 0.992,0.035 1.5,0.047c0.906,1.969 1.278,3.499 1.427,5.121c0.001,0.011 0.011,0.018 0.016,0.027c-0.782,-0.388 -1.553,-0.77 -2.284,-1.218Zm-3.098,-2.939c-0.237,-0.534 -0.37,-1.035 -0.044,-1.301c0.477,0.094 0.979,0.157 1.499,0.201c0.525,1.248 0.651,2.333 0.486,3.238c-0.717,-0.57 -1.375,-1.254 -1.941,-2.138Z" style="fill:#2d1817;"/>
            <path d="M30.791,8.438c0.333,-0.015 0.662,-0.035 0.984,-0.062c-0.003,1.198 -0.161,2.286 -0.487,3.238c-0.371,0.294 -0.758,0.557 -1.157,0.801c0.454,-1.19 0.675,-2.458 0.66,-3.977Zm2.482,-0.263c0.25,-0.05 0.492,-0.107 0.727,-0.175l-0,0.006c-0.232,0.546 -0.49,1.032 -0.771,1.47c0.034,-0.42 0.049,-0.854 0.044,-1.301Zm-5.426,5.458c-2.029,1.006 -4.136,2.048 -5.845,4.367l0,2l-2,-0l0,-9c2.499,-2.39 6.028,-2.437 9.288,-2.515c0.012,2.038 -0.464,3.56 -1.427,5.121c-0.006,0.009 -0.011,0.018 -0.016,0.027Zm-21.136,-5.148c3.26,0.078 6.789,0.125 9.288,2.515l-0,9l-2,-0l-0,-2c-1.709,-2.319 -3.816,-3.361 -5.845,-4.367c-0.005,-0.009 -0.01,-0.018 -0.016,-0.027c-0.963,-1.561 -1.439,-3.083 -1.427,-5.121Zm-2.484,-0.109c0.321,0.027 0.65,0.047 0.984,0.062c-0.016,1.519 0.205,2.787 0.659,3.977c-0.399,-0.244 -0.786,-0.507 -1.157,-0.801c-0.325,-0.952 -0.484,-2.04 -0.486,-3.238Zm-1.455,1.1c-0.281,-0.438 -0.539,-0.924 -0.771,-1.47l0,-0.006c0.235,0.068 0.478,0.125 0.727,0.175c-0.005,0.447 0.01,0.881 0.044,1.301Z" style="fill:#5a292d;"/>
            <path d="M26.002,17l-1,0l0,-3c1.167,-0.601 2.628,-0.203 3.498,0.5c-0.397,0.213 -0.698,0.562 -0.927,0.951c0.618,-0.108 1.246,-0.09 1.927,0.049c-0.218,0.659 -0.352,1.499 -0.676,2.269c0.928,-0.123 1.909,-0.314 2.676,-0.769c-0.417,2.042 -1.204,3.89 -3.5,4l0,0.5l-2,0l0,-2l1,0l0,-0.5l-0.998,0l0,-2Zm-16.002,0l0,2l-0.998,0l0,0.5l1,0l0,2l-2,0l0,-0.5c-2.295,-0.11 -3.083,-1.958 -3.5,-4c0.767,0.455 1.748,0.646 2.677,0.769c-0.324,-0.77 -0.459,-1.61 -0.677,-2.269c0.681,-0.139 1.309,-0.157 1.927,-0.049c-0.228,-0.389 -0.53,-0.738 -0.927,-0.951c0.871,-0.703 2.331,-1.101 3.498,-0.5l0,3l-1,0Z" style="fill:#5a292d;"/>
            <circle cx="31.25" cy="9.75" r="0.75" style="fill:#787d99;"/>
        </g>
        <g id="head">
            <path d="M16.544,11l2.912,0c1.822,-0 3.512,0.693 4.787,1.856c0.162,0.137 0.318,0.281 0.469,0.432c1.415,1.415 2.231,3.316 2.285,5.311c0.197,0.292 0.489,0.514 0.835,0.622c1.216,0.367 2.145,0.974 2.595,1.871c-1.308,0.439 -9.751,4.101 -9.852,4.908l-5.15,0c-0.101,-0.807 -8.764,-4.432 -9.852,-4.908c0.45,-0.897 1.379,-1.504 2.595,-1.871c0.346,-0.108 0.638,-0.33 0.835,-0.622c0.054,-1.995 0.87,-3.896 2.285,-5.311c0.151,-0.151 0.307,-0.295 0.469,-0.432c1.275,-1.163 2.965,-1.856 4.787,-1.856Z" style="fill:#5a292d;"/>
            <path d="M30.427,21.092c0.478,0.955 0.413,2.237 -0.427,3.908c-0.17,-0.432 -0.391,-0.777 -0.653,-1.051c-0.194,1.72 -1.195,3.454 -2.847,4.551c0.058,-0.597 0.078,-1.107 0.06,-1.561c-2.479,3.179 -5.042,5.561 -7.56,5.561l-2,0c-2.518,0 -5.081,-2.382 -7.56,-5.561c-0.018,0.454 0.002,0.964 0.06,1.561c-1.652,-1.097 -2.653,-2.831 -2.847,-4.551c-0.262,0.274 -0.483,0.619 -0.653,1.051c-0.84,-1.671 -0.905,-2.953 -0.427,-3.908c1.088,-0.913 2.566,-1.568 4.427,-1.592c0,-1.431 0.667,-1.657 3,-2.5c0.954,-0.345 2.565,-0.73 3,0c0.384,0.645 0.5,0.882 0.5,2c0,2.027 -1,2.97 -1,2.97c-0.221,0.553 -0.176,1.223 -0.075,2.03l5.15,0c0.101,-0.807 0.146,-1.477 -0.075,-2.03c0,-0 -1,-0.943 -1,-2.97c0,-1.118 0.116,-1.355 0.5,-2c0.435,-0.73 2.046,-0.345 3,0c2.333,0.843 3,1.069 3,2.5c1.861,0.024 3.339,0.679 4.427,1.592Z" style="fill:#915856;"/>
        </g>
        <g id="face">
            <path d="M17.4,25c0,-0.331 0.269,-0.6 0.6,-0.6c0.331,0 0.6,0.269 0.6,0.6l0,2.5c0,0.331 -0.269,0.6 -0.6,0.6c-0.331,0 -0.6,-0.269 -0.6,-0.6l0,-2.5Z" style="fill:#261414;"/>
            <path d="M18,26c-0.225,-0 -0.68,-0.126 -1.074,-0.409c-0.22,-0.158 -0.793,-0.556 -1.265,-0.941c-0.179,-0.181 -0.264,-0.434 -0.232,-0.686c0.032,-0.252 0.179,-0.475 0.397,-0.605c0.618,-0.399 1.462,-0.859 2.174,-0.859c0.712,0 1.556,0.46 2.174,0.859c0.218,0.13 0.365,0.353 0.397,0.605c0.032,0.252 -0.053,0.505 -0.232,0.686c-0.472,0.385 -1.045,0.783 -1.265,0.941c-0.394,0.283 -0.849,0.409 -1.074,0.409Z" style="fill:#281515;"/>
            <path d="M9.5,18.5c0.51,-1.247 2.037,-1.714 4,-2.234c1.611,-0.427 2.5,-0.766 2.5,-0.766l0.5,2c0,-0 -1.518,0.23 -2.981,0.417c-2.051,0.263 -4.019,0.583 -4.019,0.583Zm17,0c0,0 -1.968,-0.32 -4.019,-0.583c-1.463,-0.187 -2.981,-0.417 -2.981,-0.417l0.5,-2c0,0 0.889,0.339 2.5,0.766c1.963,0.52 3.49,0.987 4,2.234Z" style="fill:#2d1413;"/>
            <path d="M10.927,20.984c-0.267,-0.317 -0.227,-0.79 0.089,-1.057c0.317,-0.267 0.79,-0.227 1.057,0.089c0.286,0.339 0.842,0.399 1.373,0.333c0.567,-0.069 1.145,-0.303 1.415,-0.742c0.217,-0.352 0.679,-0.463 1.032,-0.246c0.352,0.217 0.463,0.679 0.246,1.032c-0.489,0.795 -1.482,1.319 -2.511,1.445c-1.065,0.131 -2.128,-0.176 -2.701,-0.854Zm13,-0.968c0.267,-0.316 0.74,-0.356 1.057,-0.089c0.316,0.267 0.356,0.74 0.089,1.057c-0.573,0.678 -1.636,0.985 -2.701,0.854c-1.029,-0.126 -2.022,-0.65 -2.511,-1.445c-0.217,-0.353 -0.106,-0.815 0.246,-1.032c0.353,-0.217 0.815,-0.106 1.032,0.246c0.27,0.439 0.848,0.673 1.415,0.742c0.531,0.066 1.087,0.006 1.373,-0.333Z"/>
            <g>
                <path d="M15.77,29.774c-0.236,-0.049 -0.717,-0.105 -0.857,0.211c-0.035,0.005 -0.069,0.009 -0.103,0.013c-1.568,0.188 -2.053,-1.132 -1.81,-1.998c0.208,-0.743 0.527,-1.207 0.912,-1.486c0.511,0.132 1.117,-0.219 1.117,-0.219l2.971,0.205l3.015,-0.176c-0,0 0.489,0.205 1.073,0.19c0.385,0.279 0.704,0.743 0.912,1.486c0.243,0.866 -0.242,2.186 -1.81,1.998c-0.034,-0.004 -0.068,-0.008 -0.103,-0.013c-0.14,-0.316 -0.621,-0.26 -0.857,-0.211c-0.304,-0.585 -4.156,-0.585 -4.46,0Z" style="fill:#3a0509;"/>
                <path d="M15.77,29.774c0.304,-0.585 0.937,-1.274 2.23,-1.274c1.293,0 1.926,0.689 2.23,1.274c-0.081,0.017 -0.134,0.033 -0.134,0.033c-0.691,-0.144 -1.366,-0.302 -2.096,-0.307c-0.73,0.005 -1.405,0.163 -2.096,0.307c-0,0 -0.053,-0.016 -0.134,-0.033Z" style="fill:#7b1f1f;"/>
                <path d="M18,26.5c1.198,0 2.94,-0.815 4.088,0.014c-0.189,0.425 -0.408,0.782 -0.588,0.986l-0.5,-1l-3,0Zm0,0l-3,0l-0.5,1c-0.18,-0.204 -0.399,-0.561 -0.588,-0.986c1.148,-0.829 2.89,-0.014 4.088,-0.014Zm2.096,3.307l0.404,-0.807c0.18,0.204 0.399,0.561 0.587,0.985c-0.338,-0.045 -0.666,-0.11 -0.991,-0.178Zm-5.183,0.178c0.188,-0.424 0.407,-0.781 0.587,-0.985l0.404,0.807c-0.325,0.068 -0.653,0.133 -0.991,0.178Z" style="fill:#fff;"/>
            </g>
        </g>
        <g id="glasses">
            <path d="M10,18c2.287,-0.93 4.121,-0.726 6.5,0.194c0.219,1.147 0.255,2.328 0.109,3.541c-0.059,0.462 -0.383,0.846 -0.828,0.981c-1.687,0.533 -2.874,0.53 -4.485,0.021c-0.515,-0.154 -0.929,-0.541 -1.118,-1.044c-0.316,-1.022 -0.487,-2.424 -0.178,-3.693Z" style="fill:none;stroke:#000;stroke-width:1px;"/>
            <path d="M26,18c-2.287,-0.93 -4.121,-0.726 -6.5,0.194c-0.219,1.147 -0.255,2.328 -0.109,3.541c0.059,0.462 0.383,0.846 0.828,0.981c1.687,0.533 2.874,0.53 4.485,0.021c0.515,-0.154 0.929,-0.541 1.118,-1.044c0.316,-1.022 0.487,-2.424 0.178,-3.693Z" style="fill:none;stroke:#000;stroke-width:1px;"/>
            <path d="M6.5,18l3.5,0" style="fill:none;stroke:#000;stroke-width:1px;"/>
            <path d="M29.5,18l-3.5,0" style="fill:none;stroke:#000;stroke-width:1px;"/>
            <path d="M16.5,18c0,0 0.521,-0.5 1.5,-0.5c0.979,0 0,1.5 0,1.5c-0.763,0 -1.5,0.5 -1.5,0.5l0,-1.5Z"/>
            <path d="M19.5,18c0,0 -0.521,-0.5 -1.5,-0.5c-0.979,0 0,1.5 0,1.5c0.763,0 1.5,0.5 1.5,0.5l0,-1.5Z"/>
        </g>
        <path id="front-hair" serif:id="front hair" d="M25.369,10.234c0.97,1.081 1.603,2.524 1.631,4.266c0.056,3.488 -3.383,4.477 -3.383,4.477c-0.154,-1.898 -1.162,-4.344 -2.582,-6.112c0.013,0.166 0.015,0.339 0.004,0.518c-0.176,2.979 -2.069,5.253 -2.069,5.253c-0.363,-1.96 -0.849,-3.924 -2.016,-5.572c-0.679,0.931 -1.786,1.667 -2.954,2.436c0.522,-1.004 1,-3.322 1,-5.5l0.909,0.273l0.091,-0.273l0,-1l3,0l0.102,0.204c0.272,-0.622 0.601,-1.189 0.898,-1.204c3.171,-0.912 3.839,0.461 6.5,0c-0.132,1.033 -0.548,1.757 -1.131,2.234Z" style="fill:#2d1413;"/>
        <g id="tears">
            <path d="M27.5,19.5c0,0 0.828,-2.391 1.805,-3.042c0.978,-0.652 2.143,-0.576 2.603,0.374c0.493,1.019 -0.456,2.099 -1.185,2.484c-0.64,0.338 -3.223,0.184 -3.223,0.184Zm-19,0c0,0 -2.583,0.154 -3.223,-0.184c-0.729,-0.385 -1.678,-1.465 -1.185,-2.484c0.46,-0.95 1.625,-1.026 2.603,-0.374c0.977,0.651 1.805,3.042 1.805,3.042Zm18.5,2.5c-0,-0 3.243,0.046 4.432,0.979c1.191,0.933 1.574,2.39 0.606,3.337c-1.037,1.016 -2.736,0.291 -3.501,-0.446c-0.671,-0.647 -1.537,-3.87 -1.537,-3.87Zm-18,0c-0,0 -0.866,3.223 -1.537,3.87c-0.765,0.737 -2.464,1.462 -3.501,0.446c-0.968,-0.947 -0.585,-2.404 0.606,-3.337c1.189,-0.933 4.432,-0.979 4.432,-0.979Z" style="fill:#35b5d5;"/>
        </g>
    </g>
</svg>
