<?xml version="1.0" encoding="UTF-8" standalone="no"?>
<!DOCTYPE svg PUBLIC "-//W3C//DTD SVG 1.1//EN" "http://www.w3.org/Graphics/SVG/1.1/DTD/svg11.dtd">
<svg width="100%" height="100%" viewBox="0 0 36 36" version="1.1" xmlns="http://www.w3.org/2000/svg" xmlns:xlink="http://www.w3.org/1999/xlink" xml:space="preserve" xmlns:serif="http://www.serif.com/" style="fill-rule:evenodd;clip-rule:evenodd;stroke-linecap:round;stroke-linejoin:round;stroke-miterlimit:1.5;">
    <rect id="videah_dizzy_face" x="0" y="0" width="36" height="36" style="fill:none;"/>
    <g id="outline">
        <path d="M7.078,18.756c-0.698,-0.469 -1.521,-1.198 -2.078,-2.256c-1.143,-2.172 0.036,-5.055 0.036,-6.543c0,-2.939 0.369,-6.266 1.394,-6.574c1.65,-0.495 3.786,1.484 5.279,3.183c0.883,1.007 1.757,2.243 2.51,3.416c0.927,-1.173 1.582,-2.374 1.632,-3.633c0.364,0.508 0.645,1.065 0.814,1.649c0.819,-0.864 2.188,-1.548 4.335,-1.498c-0.57,0.387 -1.046,0.793 -1.428,1.226c1.332,-0.461 2.712,-0.484 3.792,-0.021c0.305,-0.4 0.616,-0.784 0.927,-1.139c1.493,-1.699 3.629,-3.678 5.279,-3.183c1.025,0.308 1.394,3.635 1.394,6.574c-0,1.488 1.179,4.371 0.036,6.543c-0.557,1.058 -1.38,1.787 -2.078,2.256c0.898,-0.123 1.838,-0.317 2.578,-0.756c-0.274,1.343 -0.708,2.602 -1.626,3.338c1.003,0.992 1.212,2.503 0.126,4.662c-0.17,-0.432 -0.391,-0.777 -0.653,-1.051c-0.194,1.72 -1.195,3.454 -2.847,4.551c0.085,-0.874 0.088,-1.563 0.01,-2.16c-3.04,2.845 -4.901,5.16 -7.51,5.16l-2,-0c-2.609,-0 -4.47,-2.315 -7.51,-5.16c-0.078,0.597 -0.075,1.286 0.01,2.16c-1.652,-1.097 -2.653,-2.831 -2.847,-4.551c-0.262,0.274 -0.483,0.619 -0.653,1.051c-1.086,-2.159 -0.877,-3.67 0.126,-4.662c-0.918,-0.736 -1.352,-1.995 -1.626,-3.338c0.74,0.439 1.68,0.633 2.578,0.756Z" style="fill:none;stroke:#000;stroke-width:4px;"/>
    </g>
    <path id="rear-hair" serif:id="rear hair" d="M18,13l-0,1l-5,0l0,-1l0.484,-2.149c1.3,-1.448 2.304,-2.93 2.367,-4.502c0.364,0.508 0.645,1.065 0.814,1.649c0.819,-0.864 2.188,-1.548 4.335,-1.498c-0.57,0.387 -1.046,0.793 -1.428,1.226c1.868,-0.647 3.829,-0.431 4.928,0.774c-2.17,0.249 -5.011,1.448 -5.5,3l0,1.5l-1,0Z" style="fill:#2d1413;"/>
    <g id="ears-up" serif:id="ears up">
        <path d="M5.328,5.808c0.218,-1.301 0.573,-2.266 1.102,-2.425c0.902,-0.27 1.948,0.198 2.955,0.955c-1.311,0.865 -2.726,1.246 -4.057,1.47Zm-0.29,3.876c0.004,-0.59 0.024,-1.191 0.061,-1.776c1.397,-2.407 3.56,-3.02 5.843,-2.172c0.269,0.276 0.526,0.557 0.767,0.83c0.093,0.107 0.187,0.216 0.28,0.328c-1.681,0.666 -6.435,2.798 -6.951,2.79Zm8.021,-1.408c1.245,1.72 2.344,3.611 2.941,4.724l1,1l-0,7l-6,0l-1,1.5l-2,0l-0,-0.5c-2.296,-0.11 -3.083,-1.958 -3.5,-4c0.74,0.439 1.68,0.633 2.578,0.756c-0.698,-0.469 -1.521,-1.198 -2.078,-2.256c-0.736,-1.398 -0.509,-3.09 -0.255,-4.516c0.383,-1.698 6.241,-4.77 8.314,-3.708Zm13.556,-3.938c1.007,-0.757 2.053,-1.225 2.955,-0.955c0.529,0.159 0.884,1.124 1.102,2.425c-1.628,-0.079 -2.889,-0.803 -4.057,-1.47Zm-2.604,2.556c0.093,-0.112 0.187,-0.221 0.28,-0.328c0.241,-0.273 0.498,-0.554 0.767,-0.83c2.228,-0.773 4.447,-0.475 5.843,2.172c0.037,0.585 0.057,1.186 0.061,1.776c-0.417,-0.313 -5.259,-2.296 -6.951,-2.79Zm7.244,5.09c0.254,1.426 0.481,3.118 -0.255,4.516c-0.557,1.058 -1.38,1.787 -2.078,2.256c0.898,-0.123 1.838,-0.317 2.578,-0.756c-0.417,2.042 -1.204,3.89 -3.5,4l-0,0.5l-2,0l-1,-1.5l-6,0l-0,-7l1,-1c0.597,-1.113 1.696,-3.004 2.941,-4.724c2.249,-1.073 8.248,1.529 8.314,3.708Z" style="fill:#5a292d;"/>
        <path d="M4.745,11.984c0.142,-0.789 0.291,-1.497 0.291,-2.027c0,-0.091 0.001,-0.182 0.002,-0.273c0.417,-0.313 0.868,-0.605 1.344,-0.872c1.743,-0.98 3.807,-1.64 5.607,-1.918c0.363,0.434 0.723,0.901 1.07,1.382c-1.802,0.144 -4.075,0.794 -5.942,1.843c-0.934,0.525 -1.769,1.147 -2.372,1.865Zm6.197,-6.248c-2.093,-0.004 -4.254,0.615 -5.843,2.172c0.046,-0.744 0.121,-1.463 0.229,-2.1c1.23,-0.808 2.63,-1.278 4.057,-1.47c0.54,0.406 1.068,0.895 1.557,1.398Zm19.959,2.172c-1.589,-1.557 -3.75,-2.176 -5.843,-2.172c0.489,-0.503 1.017,-0.992 1.557,-1.398c1.427,0.192 2.827,0.662 4.057,1.47c0.108,0.637 0.183,1.356 0.229,2.1Zm0.354,4.076c-0.603,-0.718 -1.438,-1.34 -2.372,-1.865c-1.867,-1.049 -4.14,-1.699 -5.942,-1.843c0.347,-0.481 0.707,-0.948 1.07,-1.382c1.8,0.278 3.864,0.938 5.607,1.918c0.476,0.267 0.927,0.559 1.344,0.872c0.001,0.091 0.002,0.182 0.002,0.273c-0,0.53 0.149,1.238 0.291,2.027Z" style="fill:#2d1817;"/>
        <path d="M28.939,8.858c0.067,0.053 -1.674,3.847 -1.349,3.827c-0.058,0.411 0.2,1.96 0.027,2.346c-0.235,0.528 -1.537,1.022 -1.474,0.999c-0.239,0.553 -0.143,1.97 -0.143,1.97l-0,1l-4,0l0,-4l0.516,-0c-0,-0 0.915,-3.441 1.525,-5.191c0.271,-0.776 0.895,-1.753 1.622,-2.665c0.132,0.04 0.262,0.083 0.392,0.128c-0.076,0.149 -0.076,0.331 0.016,0.485c0.141,0.236 0.449,0.314 0.686,0.172c0.133,-0.08 0.271,-0.142 0.408,-0.189c0.031,0.015 0.061,0.03 0.091,0.045c-0.102,-0.136 1.824,0.356 1.824,0.356c0.094,-0.098 0.189,-0.198 0.284,-0.298c0.178,-0.189 0.182,-0.482 0.009,-0.676c-0.202,-0.227 -0.571,-0.426 -1.043,-0.505c-0.457,-0.076 -1.015,-0.044 -1.565,0.159c-0.152,-0.143 -0.301,-0.293 -0.448,-0.449c1.157,-1.287 2.382,-2.245 2.805,-1.95c0.42,0.294 0.777,2.217 0.86,4.196c-0.199,-0.045 -0.394,-0.1 -0.586,-0.163l-0.457,0.403Zm-20.76,6.553c-0.612,-0.3 -1.17,-0.411 -1.17,-0.411c-0,-0 -0.855,-1.556 -0.994,-4.801c-0.103,-2.405 0.33,-5.404 0.863,-5.777c0.784,-0.548 4.322,3.213 5.081,5.387c0.61,1.75 1.525,5.191 1.525,5.191l0.516,-0l0,4l-4,0l0,-1c0,0 -0.094,-0.544 -0.341,-1.107c0.005,0.003 0.384,-0.34 0.341,-0.393c-0.321,-0.391 -1.434,-1.291 -1.821,-1.089Zm21.272,-6.126c0.185,0.163 0.367,0.335 0.546,0.515c-0.003,0.134 -0.007,0.267 -0.012,0.399c-0.139,3.245 -0.994,4.801 -0.994,4.801c0,-0 -0.462,0.092 -1.006,0.335c0.01,-0.023 -0.166,-2.816 -0.263,-2.819c0.861,-0.875 1.769,-3.148 1.729,-3.231Z" style="fill:#8d5654;"/>
        <path d="M8.179,15.411c-0.416,-0.748 -0.632,-1.619 -0.678,-2.381c-0.01,-0.172 0.068,-0.337 0.208,-0.437c0.081,-0.058 0.176,-0.089 0.273,-0.093c-0.861,-0.875 -1.368,-2.004 -1.479,-2.941c-0.023,-0.202 0.077,-0.398 0.255,-0.496c0.177,-0.099 0.397,-0.08 0.555,0.047c0.2,0.16 0.452,0.176 0.679,0.157c0.013,-0.001 0.027,-0.002 0.041,-0.004c-0.382,-0.373 -0.891,-0.883 -1.397,-1.42c-0.178,-0.189 -0.182,-0.482 -0.009,-0.676c0.202,-0.227 0.571,-0.426 1.043,-0.505c0.603,-0.1 1.381,-0.013 2.087,0.409c0.236,0.141 0.314,0.449 0.172,0.686c-0.141,0.236 -0.449,0.314 -0.686,0.172c-0.476,-0.285 -1.002,-0.348 -1.409,-0.28c0.806,0.828 1.508,1.486 1.508,1.486c0.15,0.141 0.198,0.358 0.123,0.549c-0.047,0.118 -0.135,0.21 -0.244,0.264c-0.003,0.002 -0.011,0.006 -0.021,0.01c-0.09,0.043 -0.571,0.259 -1.124,0.305c-0.122,0.011 -0.246,0.013 -0.372,0.004c0.332,0.878 1.02,1.788 2.019,2.285c0.18,0.09 0.289,0.28 0.276,0.481c-0.014,0.202 -0.147,0.375 -0.338,0.44c-0.4,0.136 -0.757,0.182 -1.078,0.164c0.186,0.969 0.668,2.002 1.612,2.403c0.254,0.108 0.373,0.401 0.265,0.655c-0.108,0.254 -0.401,0.373 -0.655,0.265c-0.05,-0.021 -0.099,-0.043 -0.146,-0.067c-0.138,-0.311 -0.322,-0.627 -0.564,-0.86c-0.274,-0.264 -0.602,-0.467 -0.916,-0.622Zm18.151,1.508c-0.063,0.023 -0.127,0.043 -0.194,0.062c-0.265,0.075 -0.542,-0.079 -0.617,-0.345c-0.075,-0.265 0.079,-0.542 0.345,-0.617c0.628,-0.178 1.003,-0.631 1.239,-1.159c0.172,-0.387 0.273,-0.813 0.332,-1.223c-0.326,0.019 -0.689,-0.025 -1.096,-0.164c-0.191,-0.065 -0.324,-0.238 -0.338,-0.44c-0.013,-0.201 0.096,-0.391 0.276,-0.481c0.999,-0.497 1.688,-1.407 2.018,-2.285c-0.125,0.009 -0.249,0.007 -0.371,-0.004c-0.553,-0.046 -1.034,-0.262 -1.124,-0.305c-0.01,-0.004 -0.018,-0.008 -0.021,-0.01c-0.109,-0.054 -0.197,-0.146 -0.244,-0.264c-0.075,-0.191 -0.027,-0.408 0.123,-0.549c-0,0 0.481,-0.451 1.103,-1.075c0.291,0.169 0.576,0.354 0.856,0.556c-0.238,0.241 -0.46,0.461 -0.65,0.647c0.014,0.002 0.027,0.003 0.041,0.004c0.227,0.019 0.479,0.003 0.679,-0.157c0.129,-0.104 0.299,-0.135 0.453,-0.09c0.105,0.086 0.209,0.174 0.311,0.265c0.04,0.083 0.057,0.178 0.046,0.274c-0.111,0.937 -0.618,2.066 -1.479,2.941c0.097,0.004 0.192,0.035 0.273,0.093c0.14,0.1 0.218,0.265 0.208,0.437c-0.042,0.694 -0.164,1.522 -0.483,2.237c-0.01,0.023 -0.021,0.045 -0.031,0.068c-0.361,0.161 -0.758,0.388 -1.08,0.698c-0.249,0.239 -0.437,0.567 -0.575,0.886Zm1.425,-9.293c-0.343,-0.236 -0.672,-0.505 -0.99,-0.805c0.55,-0.203 1.108,-0.235 1.565,-0.159c0.472,0.079 0.841,0.278 1.043,0.505c0.173,0.194 0.169,0.487 -0.009,0.676c-0.141,0.149 -0.282,0.297 -0.421,0.44c-0.318,-0.135 -0.626,-0.297 -0.924,-0.483c0.048,-0.05 0.097,-0.1 0.147,-0.151c-0.127,-0.021 -0.266,-0.03 -0.411,-0.023Zm-0.59,0.114c-0.137,0.047 -0.275,0.109 -0.408,0.189c-0.237,0.142 -0.545,0.064 -0.686,-0.172c-0.092,-0.154 -0.092,-0.336 -0.016,-0.485c0.378,0.133 0.748,0.289 1.11,0.468Z" style="fill:#2e1d1d;"/>
        <path d="M29.997,9.8l-4.334,-2.656c0.212,-0.265 0.432,-0.525 0.654,-0.772l3.665,2.246c0.017,0.396 0.022,0.794 0.015,1.182Zm-5.243,-4.55c0.414,-0 0.75,0.336 0.75,0.75c0,0.414 -0.336,0.75 -0.75,0.75c-0.414,-0 -0.75,-0.336 -0.75,-0.75c0,-0.414 0.336,-0.75 0.75,-0.75Zm6.496,4c0.414,-0 0.75,0.336 0.75,0.75c0,0.414 -0.336,0.75 -0.75,0.75c-0.414,0 -0.75,-0.336 -0.75,-0.75c0,-0.414 0.336,-0.75 0.75,-0.75Z" style="fill:#787d99;"/>
    </g>
    <g>
        <path d="M16.544,12l2.912,-0c1.822,-0 3.512,0.693 4.787,1.856c0.162,0.137 0.318,0.281 0.469,0.432c1.415,1.415 2.231,3.316 2.285,5.311c0.197,0.292 0.489,0.514 0.835,0.622c1.216,0.367 2.145,0.974 2.595,1.871c-1.287,0.412 -9.751,4.101 -9.852,4.908l-5.15,0c-0.101,-0.807 -8.399,-3.767 -9.852,-4.908c0.45,-0.897 1.379,-1.504 2.595,-1.871c0.346,-0.108 0.638,-0.33 0.835,-0.622c0.054,-1.995 0.87,-3.896 2.285,-5.311c0.151,-0.151 0.307,-0.295 0.469,-0.432c1.275,-1.163 2.965,-1.856 4.787,-1.856Z" style="fill:#5a292d;"/>
        <path d="M30.427,22.092c0.478,0.955 0.413,2.237 -0.427,3.908c-0.17,-0.432 -0.391,-0.777 -0.653,-1.051c-0.194,1.72 -1.195,3.454 -2.847,4.551c0.085,-0.874 0.088,-1.563 0.01,-2.16c-3.04,2.845 -4.901,5.16 -7.51,5.16l-2,-0c-2.609,-0 -4.47,-2.315 -7.51,-5.16c-0.078,0.597 -0.075,1.286 0.01,2.16c-1.652,-1.097 -2.653,-2.831 -2.847,-4.551c-0.262,0.274 -0.483,0.619 -0.653,1.051c-0.84,-1.671 -0.905,-2.953 -0.427,-3.908c1.088,-0.913 2.566,-1.568 4.427,-1.592c-0,-2.762 1.8,-4.939 4.228,-4.426c1.123,0.237 2.272,1.543 2.272,3.926c-0,2.027 -1,2.97 -1,2.97c-0.221,0.553 -0.176,1.223 -0.075,2.03l5.15,0c0.101,-0.807 0.146,-1.477 -0.075,-2.03c-0,-0 -1,-0.943 -1,-2.97c-0,-2.383 1.149,-3.689 2.272,-3.926c2.428,-0.513 4.228,1.664 4.228,4.426c1.861,0.024 3.339,0.679 4.427,1.592Z" style="fill:#915856;"/>
    </g>
    <g id="face">
        <path d="M17.4,26c0,-0.331 0.269,-0.6 0.6,-0.6c0.331,0 0.6,0.269 0.6,0.6l-0,1.851c0,0.331 -0.269,0.6 -0.6,0.6c-0.331,0 -0.6,-0.269 -0.6,-0.6l0,-1.851Z" style="fill:#261414;"/>
        <path d="M18,28.625c-0.252,0.09 -0.482,0.259 -0.7,0.446c-0.321,0.274 -0.611,0.592 -0.878,0.856c-0.235,0.232 -0.613,0.231 -0.846,-0.003c-0,0 -1.211,-1.211 -1.212,-1.211c-0.186,0.111 -0.344,0.256 -0.482,0.39c-0.193,0.187 -0.356,0.364 -0.496,0.482c-0.254,0.212 -0.633,0.179 -0.846,-0.074c-0.212,-0.254 -0.179,-0.633 0.074,-0.846c0.371,-0.311 0.907,-0.995 1.712,-1.239c0.212,-0.064 0.442,-0.007 0.598,0.15c0,-0 1.077,1.077 1.077,1.077c0.537,-0.526 1.16,-1.074 1.863,-1.237c0.09,-0.021 0.182,-0.021 0.272,-0c0.703,0.163 1.325,0.711 1.863,1.237l1.077,-1.077c0.156,-0.157 0.386,-0.214 0.598,-0.15c0.805,0.244 1.341,0.928 1.712,1.239c0.253,0.213 0.286,0.592 0.074,0.846c-0.213,0.253 -0.592,0.286 -0.846,0.074c-0.14,-0.118 -0.303,-0.295 -0.496,-0.482c-0.138,-0.134 -0.296,-0.279 -0.483,-0.39l-1.211,1.211c-0.233,0.234 -0.611,0.235 -0.846,0.003c-0.267,-0.264 -0.557,-0.582 -0.878,-0.856c-0.218,-0.187 -0.448,-0.356 -0.7,-0.446Z"/>
        <path d="M18,27c-0.225,-0 -0.68,-0.126 -1.074,-0.409c-0.22,-0.158 -0.793,-0.556 -1.265,-0.941c-0.179,-0.181 -0.264,-0.434 -0.232,-0.686c0.032,-0.252 0.179,-0.475 0.397,-0.605c0.618,-0.399 1.462,-0.859 2.174,-0.859c0.712,0 1.556,0.46 2.174,0.859c0.218,0.13 0.365,0.353 0.397,0.605c0.032,0.252 -0.053,0.505 -0.232,0.686c-0.472,0.385 -1.045,0.783 -1.265,0.941c-0.394,0.283 -0.849,0.409 -1.074,0.409Z" style="fill:#281515;"/>
        <path d="M10.5,17.972c0.089,-1.334 1.208,-2.185 3.137,-2.717c1.311,-0.362 2.827,-0.763 2.827,-0.763l-0.464,1.508c0,0 -0.955,0.558 -2.5,0.972c-2.028,0.544 -3,1 -3,1Zm15.767,0c0,0 -0.972,-0.456 -3,-1c-1.545,-0.414 -2.5,-0.972 -2.5,-0.972l-0.464,-1.508c0,0 1.516,0.401 2.827,0.763c1.929,0.532 3.048,1.383 3.137,2.717Z" style="fill:#2d1413;"/>
    </g>
    <g id="glasses">
        <rect x="9" y="17" width="9" height="8" style="fill:none;"/>
        <path d="M10,18.5c2.287,-0.93 4.121,-0.92 6.5,-0c0.22,1.153 0.256,2.505 0.106,3.779c-0.058,0.461 -0.383,0.844 -0.828,0.978c-1.685,0.532 -2.87,0.53 -4.48,0.022c-0.515,-0.155 -0.929,-0.541 -1.118,-1.045c-0.317,-1.033 -0.489,-2.463 -0.18,-3.734Z" style="fill:#f9d670;"/>
        <clipPath id="_clip1">
            <path d="M10,18.5c2.287,-0.93 4.121,-0.92 6.5,-0c0.22,1.153 0.256,2.505 0.106,3.779c-0.058,0.461 -0.383,0.844 -0.828,0.978c-1.685,0.532 -2.87,0.53 -4.48,0.022c-0.515,-0.155 -0.929,-0.541 -1.118,-1.045c-0.317,-1.033 -0.489,-2.463 -0.18,-3.734Z"/>
        </clipPath>
        <g clip-path="url(#_clip1)">
            <path d="M13.066,20.733c-0.171,0.884 1.124,1.154 1.702,0.662c1.102,-0.94 0.312,-2.868 -1.726,-2.655c-1.803,0.188 -2.156,1.935 -1.708,3.223c0.409,1.177 1.864,2.047 3.482,1.627" style="fill:none;stroke:#5b4504;stroke-width:1.2px;"/>
        </g>
        <path d="M10,18.5c2.287,-0.93 4.121,-0.92 6.5,-0c0.22,1.153 0.256,2.505 0.106,3.779c-0.058,0.461 -0.383,0.844 -0.828,0.978c-1.685,0.532 -2.87,0.53 -4.48,0.022c-0.515,-0.155 -0.929,-0.541 -1.118,-1.045c-0.317,-1.033 -0.489,-2.463 -0.18,-3.734Z" style="fill:none;stroke:#000;stroke-width:1px;"/>
        <rect x="18" y="17" width="9" height="8" style="fill:none;"/>
        <path d="M26,18.5c-2.287,-0.93 -4.121,-0.92 -6.5,-0c-0.22,1.153 -0.256,2.505 -0.106,3.779c0.058,0.461 0.383,0.844 0.828,0.978c1.685,0.532 2.87,0.53 4.48,0.022c0.515,-0.155 0.929,-0.541 1.118,-1.045c0.317,-1.033 0.489,-2.463 0.18,-3.734Z" style="fill:#f9d670;"/>
        <clipPath id="_clip2">
            <path d="M26,18.5c-2.287,-0.93 -4.121,-0.92 -6.5,-0c-0.22,1.153 -0.256,2.505 -0.106,3.779c0.058,0.461 0.383,0.844 0.828,0.978c1.685,0.532 2.87,0.53 4.48,0.022c0.515,-0.155 0.929,-0.541 1.118,-1.045c0.317,-1.033 0.489,-2.463 0.18,-3.734Z"/>
        </clipPath>
        <g clip-path="url(#_clip2)">
            <path d="M22.934,20.733c0.171,0.884 -1.124,1.154 -1.702,0.662c-1.102,-0.94 -0.312,-2.868 1.726,-2.655c1.803,0.188 2.156,1.935 1.708,3.223c-0.409,1.177 -1.864,2.047 -3.482,1.627" style="fill:none;stroke:#5b4504;stroke-width:1.2px;"/>
        </g>
        <path d="M26,18.5c-2.287,-0.93 -4.121,-0.92 -6.5,-0c-0.22,1.153 -0.256,2.505 -0.106,3.779c0.058,0.461 0.383,0.844 0.828,0.978c1.685,0.532 2.87,0.53 4.48,0.022c0.515,-0.155 0.929,-0.541 1.118,-1.045c0.317,-1.033 0.489,-2.463 0.18,-3.734Z" style="fill:none;stroke:#000;stroke-width:1px;"/>
        <path d="M6.5,18.5l3.5,0" style="fill:none;stroke:#000;stroke-width:1px;"/>
        <path d="M29.5,18.5l-3.5,0" style="fill:none;stroke:#000;stroke-width:1px;"/>
        <path d="M16.5,18.5c0,0 0.521,-0.5 1.5,-0.5c0.979,0 0,1.5 0,1.5c-0.763,0 -1.5,0.5 -1.5,0.5l0,-1.5Z"/>
        <path d="M19.5,18.5c0,0 -0.521,-0.5 -1.5,-0.5c-0.979,0 0,1.5 0,1.5c0.763,0 1.5,0.5 1.5,0.5l0,-1.5Z"/>
    </g>
    <path id="front-hair" serif:id="front hair" d="M25.369,11.234c0.97,1.081 1.603,2.524 1.631,4.266c0.056,3.488 -3.383,4.477 -3.383,4.477c-0.154,-1.898 -1.162,-4.344 -2.582,-6.112c0.013,0.166 0.015,0.339 0.004,0.518c-0.176,2.979 -2.069,5.253 -2.069,5.253c-0.363,-1.96 -0.849,-3.924 -2.016,-5.572c-0.679,0.931 -1.786,1.667 -2.954,2.436c0.522,-1.004 1,-3.322 1,-5.5l0.909,0.273l0.091,-0.273l-0,-1l3,0l0.102,0.204c0.272,-0.622 0.601,-1.189 0.898,-1.204c3.171,-0.912 3.839,0.461 6.5,0c-0.132,1.033 -0.548,1.757 -1.131,2.234Z" style="fill:#2d1413;"/>
</svg>
