<?xml version="1.0" encoding="UTF-8" standalone="no"?>
<!DOCTYPE svg PUBLIC "-//W3C//DTD SVG 1.1//EN" "http://www.w3.org/Graphics/SVG/1.1/DTD/svg11.dtd">
<svg width="100%" height="100%" viewBox="0 0 36 36" version="1.1" xmlns="http://www.w3.org/2000/svg" xmlns:xlink="http://www.w3.org/1999/xlink" xml:space="preserve" xmlns:serif="http://www.serif.com/" style="fill-rule:evenodd;clip-rule:evenodd;stroke-linecap:round;stroke-linejoin:round;stroke-miterlimit:1.5;">
    <rect id="videah_mind_blown" x="0" y="0" width="36" height="36" style="fill:none;"/>
    <g id="outline">
        <path d="M7.246,6.685c0.518,-1.273 1.837,-2.423 3.754,-2.423c0.39,-0 0.756,0.032 1.095,0.096c0.214,-1.564 1.828,-2.358 3.405,-2.358c1.058,-0 1.965,0.516 2.497,1.213c0.55,-0.746 1.494,-1.213 2.503,-1.213c1.698,0 2.989,0.921 3,2.339c0.636,-0.344 1.345,-0.529 2,-0.529c1.823,-0 3.384,1.136 3.855,2.661c1.304,-0.44 2.424,-0.634 3.168,-0.471c1.59,0.349 -1.276,7.101 -1.619,8.5c-0.292,1.191 -0.349,3.495 -1.985,4.256c0.9,-0.123 1.841,-0.317 2.581,-0.756c-0.274,1.343 -0.708,2.602 -1.626,3.338c1.003,0.992 1.212,2.503 0.126,4.662c-0.17,-0.432 -0.391,-0.777 -0.653,-1.051c-0.194,1.72 -1.195,3.454 -2.847,4.551c0.058,-0.597 0.078,-1.107 0.06,-1.561c-2.479,3.179 -5.042,5.561 -7.56,5.561l-2,0c-2.518,0 -5.081,-2.382 -7.56,-5.561c-0.018,0.454 0.002,0.964 0.06,1.561c-1.652,-1.097 -2.653,-2.831 -2.847,-4.551c-0.262,0.274 -0.483,0.619 -0.653,1.051c-1.086,-2.159 -0.877,-3.67 0.126,-4.662c-0.918,-0.736 -1.352,-1.995 -1.626,-3.338c0.74,0.439 1.681,0.633 2.581,0.756c-1.636,-0.761 -1.693,-3.065 -1.985,-4.256c-0.343,-1.399 -3.209,-8.151 -1.619,-8.5c0.856,-0.188 2.21,0.098 3.769,0.685Z" style="fill:none;stroke:#000;stroke-width:4px;"/>
    </g>
    <g id="ears">
        <path d="M4.354,12.285c0.799,-2.108 2.186,-4.095 4.207,-4.893c0.059,-0.023 0.106,-0.067 0.162,-0.089c0.327,0.149 0.66,0.309 0.994,0.476c0.092,0.299 -2.776,5.099 -4.714,6.394c-0.14,-0.448 -0.381,-1.119 -0.649,-1.888Zm-0.53,-1.577c-0.199,-0.622 -0.386,-1.252 -0.532,-1.842c0.425,-1.253 1.142,-2.29 2.575,-2.634c0.54,0.148 1.124,0.348 1.735,0.591c-0.994,1.514 -2.349,2.879 -3.778,3.885Zm28.352,0c-1.344,-1.173 -2.586,-2.649 -3.778,-3.885c0.611,-0.243 1.195,-0.443 1.735,-0.591c1.378,0.497 2.204,1.43 2.575,2.634c-0.146,0.59 -0.333,1.22 -0.532,1.842Zm-1.179,3.465c-1.626,-1.636 -3.221,-4.045 -4.436,-5.565c-0.206,-0.257 -0.37,-0.53 -0.278,-0.829c0.334,-0.167 0.667,-0.327 0.994,-0.476c0.056,0.022 1.004,0.16 1.055,0.197c1.472,1.061 2.135,2.859 3.314,4.785c-0.268,0.769 -0.509,1.44 -0.649,1.888Z" style="fill:#2d1817;"/>
        <path d="M3.292,8.866c-0.369,-1.494 -0.47,-2.722 0.185,-2.866c0.591,-0.13 1.42,-0.034 2.39,0.232c-0.95,0.754 -1.824,1.657 -2.575,2.634Zm4.31,-2.043c0.365,0.146 0.74,0.306 1.121,0.48c-0.056,0.022 -0.111,0.052 -0.162,0.089c-1.471,1.061 -3.028,2.967 -4.207,4.893c-0.172,-0.496 -0.355,-1.033 -0.53,-1.577c0.98,-1.514 2.304,-2.913 3.778,-3.885Zm2.115,0.956c0.597,0.3 1.201,0.626 1.8,0.971c2.874,1.658 4.579,3.388 4.579,3.388l-0.096,0.862l1,1l0,6l-5,0l-1.904,-1c0,0 -1.323,0.042 -2,0c-2.639,-0.163 -2.656,-3.101 -3,-4.5c-0.021,-0.089 -0.053,-0.199 -0.093,-0.327c1.101,-2.093 2.816,-4.397 4.436,-5.565c0.267,-0.193 0.37,-0.53 0.278,-0.829Zm17.56,-0.476c0.381,-0.174 0.756,-0.334 1.121,-0.48c1.474,0.972 2.798,2.371 3.778,3.885c-0.175,0.544 -0.358,1.081 -0.53,1.577c-1.179,-1.926 -2.736,-3.832 -4.207,-4.893c-0.051,-0.037 -0.106,-0.067 -0.162,-0.089Zm2.856,-1.071c0.97,-0.266 1.799,-0.362 2.39,-0.232c0.655,0.144 0.554,1.372 0.185,2.866c-0.751,-0.977 -1.625,-1.88 -2.575,-2.634Zm0.864,7.941c-0.04,0.128 -0.072,0.238 -0.093,0.327c-0.344,1.399 -0.361,4.337 -3,4.5c-0.677,0.042 -2,0 -2,0l-1.904,1l-5,0l0,-6l1,-1l-0.096,-0.862c-0,0 1.705,-1.73 4.579,-3.388c0.599,-0.345 1.203,-0.671 1.8,-0.971c-0.092,0.299 0.011,0.636 0.278,0.829c1.62,1.168 3.335,3.472 4.436,5.565Z" style="fill:#5a292d;"/>
        <g>
            <path d="M29.518,8.27c0.517,-0.419 0.961,-0.722 1.272,-0.853c1.413,-0.59 1.47,0.059 0.85,1.877c-0.619,1.817 -2.214,5.407 -2.585,5.738c-0.372,0.33 -1.57,0.95 -1.777,2.644c-0.206,1.693 -0.278,2.324 -0.278,2.324l-4,0l0,-4l0.5,-1c0,0 1.48,-2.146 2.952,-3.768c0.72,-0.794 1.491,-1.568 2.2,-2.213c0.278,0.066 1.41,-0.527 0.866,-0.749Z" style="fill:#915856;"/>
            <path d="M7.445,9.019c0.709,0.645 1.48,1.419 2.199,2.213c1.472,1.622 2.952,3.768 2.952,3.768l0.5,1l0,4l-4,0c0,0 -0.071,-0.631 -0.278,-2.324c-0.206,-1.694 -1.404,-2.314 -1.776,-2.644c-0.372,-0.331 -1.966,-3.921 -2.586,-5.738c-0.62,-1.818 -0.563,-2.467 0.85,-1.877c0.312,0.131 0.756,0.434 1.272,0.853c-0.543,0.222 0.589,0.815 0.867,0.749Z" style="fill:#915856;"/>
            <path d="M29.518,8.27c0.544,0.222 1.03,0.54 1.352,0.893c0.118,0.13 0.159,0.313 0.109,0.481c-0.051,0.168 -0.186,0.298 -0.357,0.341c-0.719,0.181 -1.306,0.459 -1.841,0.935l0.996,0.664c0.113,0.075 0.19,0.192 0.215,0.325c0.024,0.133 -0.006,0.27 -0.084,0.38c-0.696,0.984 -1.755,1.725 -2.896,2.22l0.145,0.052c0.25,0.089 0.387,0.358 0.312,0.612c-0.31,1.053 -0.915,1.758 -1.91,2.143c-0.258,0.099 -0.548,-0.029 -0.647,-0.286c-0.1,-0.258 0.028,-0.547 0.286,-0.647c0.54,-0.209 0.907,-0.559 1.144,-1.051l-1.01,-0.361c-0.207,-0.074 -0.342,-0.274 -0.331,-0.494c0.01,-0.22 0.162,-0.407 0.375,-0.461c1.239,-0.318 2.528,-0.943 3.393,-1.902l-1.046,-0.698c-0.12,-0.08 -0.2,-0.208 -0.219,-0.35c-0.019,-0.143 0.025,-0.287 0.12,-0.396c0.555,-0.633 1.141,-1.055 1.825,-1.346c-0.246,-0.132 -0.519,-0.239 -0.797,-0.305c0.303,-0.276 0.595,-0.529 0.866,-0.749Z" style="fill:#2e1d1d;"/>
            <path d="M7.445,9.019c-0.278,0.066 -0.551,0.172 -0.796,0.305c0.683,0.291 1.268,0.713 1.823,1.346c0.095,0.109 0.139,0.253 0.12,0.396c-0.019,0.142 -0.098,0.27 -0.218,0.35c-0,0 -1.047,0.698 -1.047,0.698c0.865,0.959 2.155,1.584 3.394,1.902c0.213,0.054 0.365,0.241 0.375,0.461c0.01,0.22 -0.124,0.42 -0.331,0.494c-0,-0 -1.01,0.361 -1.01,0.361c0.237,0.492 0.604,0.842 1.144,1.051c0.257,0.1 0.385,0.389 0.286,0.647c-0.1,0.257 -0.39,0.385 -0.647,0.286c-0.995,-0.385 -1.6,-1.09 -1.91,-2.143c-0.075,-0.254 0.061,-0.523 0.311,-0.612c0,-0 0.145,-0.052 0.144,-0.052c-1.14,-0.495 -2.198,-1.236 -2.895,-2.22c-0.078,-0.11 -0.108,-0.247 -0.083,-0.38c0.024,-0.133 0.102,-0.25 0.214,-0.325c0,-0 0.996,-0.664 0.997,-0.664c-0.535,-0.476 -1.123,-0.754 -1.842,-0.935c-0.17,-0.043 -0.306,-0.173 -0.356,-0.341c-0.051,-0.168 -0.01,-0.351 0.109,-0.481c0.322,-0.353 0.808,-0.671 1.351,-0.893c0.272,0.22 0.564,0.473 0.867,0.749Z" style="fill:#2e1d1d;"/>
        </g>
    </g>
    <path d="M9,19l1,0.5l0,3l-2,-0l0,-0.5c-2.296,-0.11 -3.083,-1.958 -3.5,-4c1.319,0.783 3.275,0.786 4.5,1Zm18,-0c1.225,-0.214 3.181,-0.217 4.5,-1c-0.417,2.042 -1.204,3.89 -3.5,4l-0,0.5l-2,-0l-0,-3l1,-0.5Z" style="fill:#5a292d;"/>
    <g>
        <path d="M7.257,6.657c0.526,-1.262 1.84,-2.395 3.743,-2.395c0.39,-0 0.756,0.032 1.095,0.096c0.214,-1.564 1.828,-2.358 3.405,-2.358c1.058,-0 1.965,0.516 2.497,1.213c0.55,-0.746 1.494,-1.213 2.503,-1.213c1.698,0 2.989,0.921 3,2.339c0.636,-0.344 1.345,-0.529 2,-0.529c1.714,-0 3.197,1.005 3.759,2.392c0.156,0.384 0.241,0.797 0.241,1.227c-0,1.98 -2.071,3.619 -4,3.619c-0.252,-0 -0.506,-0.036 -0.758,-0.1c-0.587,0.052 -0.932,0.237 -0.488,1.149c-0.158,0.541 -0.254,1.171 -0.254,1.903c-0,4.087 2,7 2,7l-16,0c0,0 2,-2.913 2,-7c-0,-0.479 -0.041,-0.914 -0.114,-1.309c0.524,-0.537 0.621,-1.111 -0.363,-1.217c-0.169,0.017 -0.344,0.026 -0.523,0.026c-3.318,0 -4,-2.153 -4,-3.619c0,-0.399 0.088,-0.818 0.257,-1.224Z" style="fill:#808080;"/>
        <path d="M11.886,12.691c-0.084,-0.457 -0.21,-0.861 -0.363,-1.217c2.173,-0.216 3.477,-1.782 3.477,-3.593c0,-0.04 -0,-0.08 -0.001,-0.119c0.071,0.01 0.142,0.026 0.213,0.049c0.656,0.214 1.015,0.92 0.801,1.576c-0.542,1.668 -1.985,3.013 -4.127,3.304Zm12.368,-0.594c-1.623,-0.509 -3.133,-1.904 -3.712,-3.298c-0.265,-0.637 0.038,-1.369 0.675,-1.634c0.099,-0.041 0.2,-0.069 0.301,-0.083c-0.012,0.113 -0.018,0.229 -0.018,0.347c0,1.345 1.565,3.087 3.242,3.519c-0.191,0.329 -0.36,0.709 -0.488,1.149Z" style="fill:#565656;"/>
    </g>
    <path d="M10,19c0,0 -1.265,-3.479 -1.783,-4.903c-0.043,-0.117 -0.017,-0.249 0.067,-0.341c0.083,-0.093 0.211,-0.132 0.332,-0.102c0.871,0.218 2.426,0.607 3.081,0.77c0.171,0.043 0.346,-0.053 0.402,-0.221c0.254,-0.762 0.932,-2.796 1.242,-3.727c0.036,-0.106 0.122,-0.188 0.23,-0.218c0.109,-0.03 0.225,-0.004 0.31,0.069c0.706,0.605 2.2,1.885 2.83,2.425c0.073,0.063 0.17,0.091 0.266,0.078c0.095,-0.013 0.181,-0.067 0.234,-0.147c0.525,-0.787 1.889,-2.832 2.493,-3.739c0.064,-0.096 0.173,-0.153 0.289,-0.15c0.116,0.002 0.222,0.064 0.282,0.164c0.613,1.021 2.077,3.462 2.564,4.274c0.091,0.151 0.283,0.207 0.441,0.128c0.646,-0.323 2.253,-1.127 3.129,-1.564c0.113,-0.057 0.249,-0.046 0.351,0.03c0.102,0.075 0.154,0.201 0.133,0.326c-0.16,0.977 -0.456,2.783 -0.577,3.521c-0.029,0.181 0.092,0.354 0.273,0.387c0.417,0.076 1.152,0.21 1.701,0.31c0.129,0.024 0.233,0.12 0.266,0.247c0.033,0.126 -0.01,0.261 -0.11,0.345c-0.867,0.722 -2.446,2.038 -2.446,2.038l-16,0Z" style="fill:#fd0024;"/>
    <path d="M13,17.5c0,0 0.657,-2.63 0.906,-3.625c0.024,-0.094 0.087,-0.174 0.174,-0.218c0.087,-0.045 0.189,-0.05 0.279,-0.013c0.544,0.217 1.558,0.623 1.965,0.786c0.109,0.043 0.234,0.027 0.328,-0.044c0.329,-0.247 1.115,-0.836 1.548,-1.161c0.077,-0.058 0.174,-0.08 0.268,-0.062c0.094,0.019 0.175,0.076 0.225,0.158c0.298,0.498 0.868,1.447 1.146,1.911c0.091,0.151 0.283,0.207 0.441,0.128c0.56,-0.28 1.815,-0.908 2.404,-1.202c0.082,-0.041 0.178,-0.047 0.265,-0.016c0.087,0.031 0.157,0.097 0.195,0.181c0.458,1.031 1.856,4.177 1.856,4.177l-12,-1Z" style="fill:#ff605a;"/>
    <g>
        <path d="M5.573,22.092c0.45,-0.897 1.379,-1.504 2.595,-1.871c0.346,-0.108 0.638,-0.33 0.835,-0.622c0.019,-0.718 0.138,-1.424 0.347,-2.099l1.32,-0.5l4.02,-1.857l1.81,0.857l2.5,-1l1,2l3,-2l2.5,2.331l0.5,1.669l0.92,-0.307c0.043,0.299 0.069,0.602 0.077,0.906c0.197,0.292 0.489,0.514 0.835,0.622c1.216,0.367 2.145,0.974 2.595,1.871c-1.538,0.273 -9.751,4.601 -9.852,5.408l-5.15,0c-0.101,-0.807 -8.559,-4.727 -9.852,-5.408Z" style="fill:#5a292d;"/>
        <path d="M30.427,22.092c0.478,0.955 0.413,2.237 -0.427,3.908c-0.17,-0.432 -0.391,-0.777 -0.653,-1.051c-0.194,1.72 -1.195,3.454 -2.847,4.551c0.058,-0.597 0.078,-1.107 0.06,-1.561c-2.479,3.179 -5.042,5.561 -7.56,5.561l-2,0c-2.518,0 -5.081,-2.382 -7.56,-5.561c-0.018,0.454 0.002,0.964 0.06,1.561c-1.652,-1.097 -2.653,-2.831 -2.847,-4.551c-0.262,0.274 -0.483,0.619 -0.653,1.051c-0.84,-1.671 -0.905,-2.953 -0.427,-3.908c1.088,-0.913 2.566,-1.568 4.427,-1.592c0,-1.431 0.667,-1.657 3,-2.5c0.954,-0.345 2.565,-0.73 3,0c0.384,0.645 0.5,0.882 0.5,2c0,2.027 -0.981,3 -0.981,3c-0.22,0.553 -0.195,0.693 -0.094,1.5l5.15,0c0.101,-0.807 0.165,-0.947 -0.056,-1.5c0,0 -1.019,-0.973 -1.019,-3c0,-1.118 0.116,-1.355 0.5,-2c0.435,-0.73 2.046,-0.345 3,0c2.333,0.843 3,1.069 3,2.5c1.861,0.024 3.339,0.679 4.427,1.592Z" style="fill:#915856;"/>
    </g>
    <g id="face">
        <path d="M18,26l0,2.5" style="fill:none;stroke:#261414;stroke-width:1.2px;"/>
        <path d="M13.5,17.5c1.38,0 2.5,1.344 2.5,3c-0,1.656 -1.12,3 -2.5,3c-1.38,0 -2.5,-1.344 -2.5,-3c-0,-1.656 1.12,-3 2.5,-3Zm9,0c1.38,0 2.5,1.344 2.5,3c-0,1.656 -1.12,3 -2.5,3c-1.38,0 -2.5,-1.344 -2.5,-3c-0,-1.656 1.12,-3 2.5,-3Z" style="fill:#f9d670;"/>
        <path d="M14.05,19.5c0.552,0 1,0.448 1,1c-0,0.552 -0.448,1 -1,1c-0.552,0 -1,-0.448 -1,-1c-0,-0.552 0.448,-1 1,-1Zm7.9,0c0.552,0 1,0.448 1,1c-0,0.552 -0.448,1 -1,1c-0.552,0 -1,-0.448 -1,-1c-0,-0.552 0.448,-1 1,-1Z" style="fill:#281214;"/>
        <path d="M18,26.5c-0.225,-0 -0.68,-0.126 -1.074,-0.409c-0.22,-0.158 -0.793,-0.556 -1.265,-0.941c-0.179,-0.181 -0.264,-0.434 -0.232,-0.686c0.032,-0.252 0.179,-0.475 0.397,-0.605c0.618,-0.399 1.462,-0.859 2.174,-0.859c0.712,0 1.556,0.46 2.174,0.859c0.218,0.13 0.365,0.353 0.397,0.605c0.032,0.252 -0.053,0.505 -0.232,0.686c-0.472,0.385 -1.045,0.783 -1.265,0.941c-0.394,0.283 -0.849,0.409 -1.074,0.409Z" style="fill:#281515;"/>
        <path d="M10.5,17.364c0.089,-1.334 1.508,-2.697 3.5,-2.5c1.655,0.164 2.5,1.136 2.5,1.136l-0.5,1c0,-0 -0.955,-0.618 -2.5,-0.636c-2.099,-0.025 -3,1 -3,1Zm15,0c0,0 -0.901,-1.025 -3,-1c-1.545,0.018 -2.5,0.636 -2.5,0.636l-0.5,-1c0,-0 0.845,-0.972 2.5,-1.136c1.992,-0.197 3.411,1.166 3.5,2.5Z" style="fill:#2d1413;"/>
        <g>
            <path d="M15.831,30.923c0,0 -0.581,-0.594 -0.711,-0.357c-0.079,-0.16 -0.123,-0.347 -0.12,-0.566c0.014,-1.164 0.512,-2.009 1.253,-2.5c1.165,-0.309 2.329,-0.308 3.494,0c0.741,0.491 1.239,1.336 1.253,2.5c0.003,0.219 -0.041,0.406 -0.12,0.566c-0.13,-0.237 -0.711,0.357 -0.711,0.357c-0.325,-0.558 -4.013,-0.558 -4.338,0Z" style="fill:#3a0509;"/>
            <path d="M20.169,30.663c-0.325,-0.558 -0.957,-1.163 -2.169,-1.163c-1.212,0 -1.844,0.605 -2.169,1.163l0.097,0.424l4.13,0.043l0.111,-0.467Z" style="fill:#7b1f1f;"/>
            <path d="M15.12,30.566c0.13,-0.237 0.263,-0.434 0.38,-0.566l0.5,1l4,-0l0.5,-1c0.117,0.132 0.25,0.329 0.38,0.566c-0.433,0.878 -1.943,0.941 -2.88,0.934c-0.937,0.007 -2.447,-0.056 -2.88,-0.934Z" style="fill:#fff;"/>
            <path d="M16.253,27.5c0.497,-0.33 1.104,-0.5 1.747,-0.5c0.643,0 1.25,0.17 1.747,0.5l-3.494,0Z" style="fill:#fff;"/>
        </g>
    </g>
    <g id="glasses">
        <path d="M10,18.5c2.287,-0.93 4.121,-0.726 6.5,0.194c0.219,1.147 0.255,2.328 0.109,3.541c-0.059,0.462 -0.383,0.846 -0.828,0.981c-1.687,0.533 -2.874,0.53 -4.485,0.021c-0.515,-0.154 -0.929,-0.541 -1.118,-1.044c-0.316,-1.022 -0.487,-2.424 -0.178,-3.693Z" style="fill:none;stroke:#000;stroke-width:1px;"/>
        <path d="M26,18.5c-2.287,-0.93 -4.121,-0.726 -6.5,0.194c-0.219,1.147 -0.255,2.328 -0.109,3.541c0.059,0.462 0.383,0.846 0.828,0.981c1.687,0.533 2.874,0.53 4.485,0.021c0.515,-0.154 0.929,-0.541 1.118,-1.044c0.316,-1.022 0.487,-2.424 0.178,-3.693Z" style="fill:none;stroke:#000;stroke-width:1px;"/>
        <path d="M6.5,18.5l3.5,0" style="fill:none;stroke:#000;stroke-width:1px;"/>
        <path d="M29.5,18.5l-3.5,0" style="fill:none;stroke:#000;stroke-width:1px;"/>
        <path d="M16.5,18.5c0,0 0.521,-0.5 1.5,-0.5c0.979,0 0,1.5 0,1.5c-0.763,0 -1.5,0.5 -1.5,0.5l0,-1.5Z"/>
        <path d="M19.5,18.5c0,0 -0.521,-0.5 -1.5,-0.5c-0.979,0 0,1.5 0,1.5c0.763,0 1.5,0.5 1.5,0.5l0,-1.5Z"/>
    </g>
</svg>
