<?xml version="1.0" encoding="UTF-8" standalone="no"?>
<!DOCTYPE svg PUBLIC "-//W3C//DTD SVG 1.1//EN" "http://www.w3.org/Graphics/SVG/1.1/DTD/svg11.dtd">
<svg width="100%" height="100%" viewBox="0 0 36 36" version="1.1" xmlns="http://www.w3.org/2000/svg" xmlns:xlink="http://www.w3.org/1999/xlink" xml:space="preserve" xmlns:serif="http://www.serif.com/" style="fill-rule:evenodd;clip-rule:evenodd;stroke-linecap:round;stroke-linejoin:round;stroke-miterlimit:1.5;">
    <rect id="videah_pleading" x="0" y="0" width="36" height="36" style="fill:none;"/>
    <clipPath id="_clip1">
        <rect x="0" y="0" width="36" height="36"/>
    </clipPath>
    <g clip-path="url(#_clip1)">
        <g id="outline">
            <path d="M14.037,9.65c0.948,-1.411 1.768,-3.144 1.814,-4.301c0.364,0.508 0.645,1.065 0.814,1.649c0.819,-0.864 2.188,-1.548 4.335,-1.498c-0.57,0.387 -1.046,0.793 -1.428,1.226c1.868,-0.647 3.829,-0.431 4.928,0.774c-2.17,0.249 -5.011,1.448 -5.5,3l0,0.5l0.456,0c0.184,-0 0.366,0.007 0.546,0.021l0,-0.021c3.806,-3.64 10.001,-1.846 13.998,-3c-0.027,0.734 -0.341,4.97 -3.444,8.634c-0.295,0.349 -0.603,0.686 -0.909,1.005c0.662,-0.128 1.311,-0.317 1.853,-0.639c-0.274,1.343 -0.708,2.602 -1.626,3.338c1.003,0.992 1.212,2.503 0.126,4.662c-0.17,-0.432 -0.391,-0.777 -0.653,-1.051c-0.194,1.72 -1.195,3.454 -2.847,4.551c0.085,-0.874 0.088,-1.563 0.01,-2.16c-3.04,2.845 -4.901,5.16 -7.51,5.16l-2,0c-2.609,0 -4.47,-2.315 -7.51,-5.16c-0.078,0.597 -0.075,1.286 0.01,2.16c-1.652,-1.097 -2.653,-2.831 -2.847,-4.551c-0.262,0.274 -0.483,0.619 -0.653,1.051c-1.086,-2.159 -0.877,-3.67 0.126,-4.662c-0.918,-0.736 -1.352,-1.995 -1.626,-3.338c0.542,0.322 1.192,0.512 1.854,0.639c-0.306,-0.319 -0.613,-0.656 -0.909,-1.005c-3.103,-3.664 -3.417,-7.9 -3.444,-8.634c3.366,0.972 8.292,-0.147 12.036,1.65Z" style="fill:none;stroke:#000;stroke-width:4px;"/>
        </g>
        <path id="rear-hair" serif:id="rear hair" d="M18,12l-0,1l-5,0l0,-1l0.484,-2.149c1.3,-1.448 2.304,-2.93 2.367,-4.502c0.364,0.508 0.645,1.065 0.814,1.649c0.819,-0.864 2.188,-1.548 4.335,-1.498c-0.57,0.387 -1.046,0.793 -1.428,1.226c1.868,-0.647 3.829,-0.431 4.928,0.774c-2.17,0.249 -5.011,1.448 -5.5,3l0,1.5l-1,0Z" style="fill:#2d1413;"/>
        <g id="ears">
            <path d="M13.999,20l-5,-0c0.334,0.34 -1.824,-1.324 -3.554,-3.366c-3.095,-3.655 -3.415,-7.878 -3.444,-8.628c4.748,3.239 8.234,2.885 11.998,7.994l-0,4Zm8.003,-0l0,-5c3.765,-5.109 5.924,-4.076 11.998,-6.994c-0.028,0.75 -0.349,4.973 -3.444,8.628c-1.73,2.042 -3.888,3.706 -3.554,3.366l-5,-0Z" style="fill:#8d5654;"/>
            <path d="M31.318,10.966c-0.257,-0.101 -0.384,-0.391 -0.284,-0.648c0.101,-0.257 0.391,-0.384 0.648,-0.284l1.281,0.5c0.234,0.092 0.364,0.343 0.303,0.586c-0.258,1.041 -0.681,1.817 -2.763,2.575c0.168,0.169 0.313,0.348 0.432,0.558c0.091,0.162 0.086,0.36 -0.014,0.516c-0.338,0.531 -0.95,1.005 -1.606,1.321c-0.671,0.323 -1.384,0.475 -1.884,0.405c-0.273,-0.038 -0.464,-0.29 -0.426,-0.564c0.038,-0.273 0.29,-0.464 0.564,-0.426c0.35,0.048 0.842,-0.089 1.312,-0.316c0.375,-0.18 0.738,-0.422 0.998,-0.703c-0.185,-0.214 -0.422,-0.387 -0.685,-0.591c-0.148,-0.115 -0.22,-0.302 -0.186,-0.486c0.035,-0.184 0.169,-0.334 0.348,-0.388c1.876,-0.565 2.513,-1.041 2.805,-1.726l-0.843,-0.329Zm-27,-0.932c0.257,-0.1 0.547,0.027 0.648,0.284c0.1,0.257 -0.027,0.547 -0.284,0.648c-0,-0 -0.843,0.329 -0.843,0.329c0.292,0.685 0.929,1.161 2.805,1.726c0.179,0.054 0.313,0.204 0.348,0.388c0.034,0.184 -0.038,0.371 -0.186,0.486c-0.263,0.204 -0.5,0.377 -0.685,0.591c0.26,0.281 0.623,0.523 0.998,0.703c0.47,0.227 0.962,0.364 1.312,0.316c0.274,-0.038 0.526,0.153 0.564,0.426c0.038,0.274 -0.153,0.526 -0.426,0.564c-0.5,0.07 -1.213,-0.082 -1.884,-0.405c-0.656,-0.316 -1.268,-0.79 -1.606,-1.321c-0.1,-0.156 -0.105,-0.354 -0.014,-0.516c0.119,-0.21 0.264,-0.389 0.432,-0.558c-2.082,-0.758 -2.505,-1.534 -2.763,-2.575c-0.061,-0.243 0.069,-0.494 0.303,-0.586l1.281,-0.5Z" style="fill:#2e1d1d;"/>
            <path d="M31,9.5c0,-0.276 0.224,-0.5 0.5,-0.5c0.276,0 0.5,0.224 0.5,0.5l-0,3c0,0.276 -0.224,0.5 -0.5,0.5c-0.276,0 -0.5,-0.224 -0.5,-0.5l-0,-3Z" style="fill:#787d99;"/>
            <path d="M27.847,13.633c0.005,-0.009 0.015,-0.016 0.016,-0.027c0.102,-1.436 -0.006,-2.873 1.427,-5.121c0.508,-0.012 1.01,-0.025 1.501,-0.047c0.342,1.503 0.133,2.77 -0.66,3.977c-0.731,0.448 -1.502,0.83 -2.284,1.218Zm3.441,-2.019c-0.236,-0.671 -0.086,-1.755 0.487,-3.238c0.519,-0.044 1.021,-0.107 1.498,-0.201c0.188,0.314 0.173,0.748 -0.044,1.301c-0.566,0.884 -1.223,1.568 -1.941,2.138Zm-25.418,0.801c-0.872,-1.34 -1.073,-2.601 -0.659,-3.977c0.49,0.022 0.992,0.035 1.5,0.047c0.906,1.969 1.278,3.499 1.427,5.121c0.001,0.011 0.011,0.018 0.016,0.027c-0.782,-0.388 -1.553,-0.77 -2.284,-1.218Zm-3.098,-2.939c-0.237,-0.534 -0.37,-1.035 -0.044,-1.301c0.477,0.094 0.979,0.157 1.499,0.201c0.525,1.248 0.651,2.333 0.486,3.238c-0.717,-0.57 -1.375,-1.254 -1.941,-2.138Z" style="fill:#2d1817;"/>
            <path d="M30.791,8.438c0.333,-0.015 0.662,-0.035 0.984,-0.062c-0.003,1.198 -0.161,2.286 -0.487,3.238c-0.371,0.294 -0.758,0.557 -1.157,0.801c0.454,-1.19 0.675,-2.458 0.66,-3.977Zm2.482,-0.263c0.25,-0.05 0.492,-0.107 0.727,-0.175l-0,0.006c-0.232,0.546 -0.49,1.032 -0.771,1.47c0.034,-0.42 0.049,-0.854 0.044,-1.301Zm-5.426,5.458c-2.029,1.006 -4.136,2.048 -5.845,4.367l0,2l-2,-0l0,-9c2.499,-2.39 6.028,-2.437 9.288,-2.515c0.012,2.038 -0.464,3.56 -1.427,5.121c-0.006,0.009 -0.011,0.018 -0.016,0.027Zm-21.136,-5.148c3.26,0.078 6.789,0.125 9.288,2.515l-0,9l-2,-0l-0,-2c-1.709,-2.319 -3.816,-3.361 -5.845,-4.367c-0.005,-0.009 -0.01,-0.018 -0.016,-0.027c-0.963,-1.561 -1.439,-3.083 -1.427,-5.121Zm-2.484,-0.109c0.321,0.027 0.65,0.047 0.984,0.062c-0.016,1.519 0.205,2.787 0.659,3.977c-0.399,-0.244 -0.786,-0.507 -1.157,-0.801c-0.325,-0.952 -0.484,-2.04 -0.486,-3.238Zm-1.455,1.1c-0.281,-0.438 -0.539,-0.924 -0.771,-1.47l0,-0.006c0.235,0.068 0.478,0.125 0.727,0.175c-0.005,0.447 0.01,0.881 0.044,1.301Z" style="fill:#5a292d;"/>
            <path d="M26.002,17l-1,0l0,-3c1.167,-0.601 2.628,-0.203 3.498,0.5c-0.397,0.213 -0.698,0.562 -0.927,0.951c0.618,-0.108 1.246,-0.09 1.927,0.049c-0.218,0.659 -0.352,1.499 -0.676,2.269c0.928,-0.123 1.909,-0.314 2.676,-0.769c-0.417,2.042 -1.204,3.89 -3.5,4l0,0.5l-2,0l0,-2l1,0l0,-0.5l-0.998,0l0,-2Zm-16.002,0l0,2l-0.998,0l0,0.5l1,0l0,2l-2,0l0,-0.5c-2.295,-0.11 -3.083,-1.958 -3.5,-4c0.767,0.455 1.748,0.646 2.677,0.769c-0.324,-0.77 -0.459,-1.61 -0.677,-2.269c0.681,-0.139 1.309,-0.157 1.927,-0.049c-0.228,-0.389 -0.53,-0.738 -0.927,-0.951c0.871,-0.703 2.331,-1.101 3.498,-0.5l0,3l-1,0Z" style="fill:#5a292d;"/>
            <circle cx="31.25" cy="9.75" r="0.75" style="fill:#787d99;"/>
        </g>
        <g>
            <path d="M6.255,20.217c0.49,-0.436 1.144,-0.764 1.913,-0.996c0.346,-0.108 0.638,-0.33 0.835,-0.622c0.054,-1.995 0.87,-3.896 2.285,-5.311c0.151,-0.151 0.307,-0.295 0.469,-0.432c1.275,-1.163 2.965,-1.856 4.787,-1.856l2.912,-0c1.822,-0 3.512,0.693 4.787,1.856c0.162,0.137 0.318,0.281 0.469,0.432c1.415,1.415 2.231,3.316 2.285,5.311c0.197,0.292 0.489,0.514 0.835,0.622c0.769,0.232 1.423,0.56 1.913,0.996c-0.684,-0.43 -9.069,4.507 -9.17,5.313l-5.15,0c-0.101,-0.806 -8.486,-5.743 -9.17,-5.313Z" style="fill:#5a292d;"/>
            <path d="M29.745,20.217c1.112,0.989 1.386,2.535 0.255,4.783c-0.17,-0.432 -0.391,-0.777 -0.653,-1.051c-0.194,1.72 -1.195,3.454 -2.847,4.551c0.085,-0.874 0.088,-1.563 0.01,-2.16c-3.04,2.845 -4.901,5.16 -7.51,5.16l-2,-0c-2.609,-0 -4.47,-2.315 -7.51,-5.16c-0.078,0.597 -0.075,1.286 0.01,2.16c-1.652,-1.097 -2.653,-2.831 -2.847,-4.551c-0.262,0.274 -0.483,0.619 -0.653,1.051c-1.131,-2.248 -0.857,-3.794 0.255,-4.783c0.684,-0.43 1.559,-0.702 2.745,-0.717c0,-2.762 0.802,-3.09 2.715,-4.67c0.775,-0.641 2.068,-1.071 3.522,-0.806c1.728,0.315 1.763,3.513 1.763,4.976c0,2.027 -1,2.5 -1,2.5c-0.221,0.553 -0.676,1.224 -0.575,2.03l5.15,0c0.101,-0.806 -0.354,-1.477 -0.575,-2.03c0,0 -1,-0.473 -1,-2.5c0,-1.179 0.072,-3.365 1,-4.5c0.208,-0.255 0.427,-0.415 0.763,-0.476c1.454,-0.265 2.747,0.165 3.522,0.806c1.913,1.58 2.715,1.908 2.715,4.67c1.186,0.015 2.061,0.287 2.745,0.717Z" style="fill:#915856;"/>
        </g>
        <g id="face">
            <path d="M14.556,28.5c-0,-0 1.558,-1.5 3.444,-1.5c1.886,-0 3.444,1.5 3.444,1.5" style="fill:none;stroke:#261414;stroke-width:1.2px;"/>
            <path d="M18,24.5l0,2.5" style="fill:none;stroke:#261414;stroke-width:1.2px;"/>
            <circle cx="22.75" cy="19.75" r="3.25" style="fill:#f9d670;"/>
            <circle cx="13.25" cy="19.75" r="3.25" style="fill:#f9d670;"/>
            <circle cx="22.286" cy="19.286" r="2.321" style="fill:#281214;"/>
            <circle cx="13.714" cy="19.286" r="2.321" style="fill:#281214;"/>
            <path d="M18,25.5c-0.225,-0 -0.68,-0.126 -1.074,-0.409c-0.22,-0.158 -0.793,-0.556 -1.265,-0.941c-0.179,-0.181 -0.264,-0.434 -0.232,-0.686c0.032,-0.252 0.179,-0.475 0.397,-0.605c0.618,-0.399 1.462,-0.859 2.174,-0.859c0.712,-0 1.556,0.46 2.174,0.859c0.218,0.13 0.365,0.353 0.397,0.605c0.032,0.252 -0.053,0.505 -0.232,0.686c-0.472,0.385 -1.045,0.783 -1.265,0.941c-0.394,0.283 -0.849,0.409 -1.074,0.409Z" style="fill:#281515;"/>
            <path d="M9.5,17c0.089,-1.335 0.617,-2.175 2.517,-3.164c1.431,-0.745 4.483,-1.336 4.483,-1.336l-0.5,2c0,-0 -2.406,0.303 -3.688,0.836c-1.938,0.807 -2.812,1.664 -2.812,1.664Z" style="fill:#2d1413;"/>
            <path d="M26.5,17c-0.089,-1.335 -0.617,-2.175 -2.517,-3.164c-1.431,-0.745 -4.483,-1.336 -4.483,-1.336l0.5,2c-0,-0 2.406,0.303 3.688,0.836c1.938,0.807 2.812,1.664 2.812,1.664Z" style="fill:#2d1413;"/>
        </g>
        <path id="front-hair" serif:id="front hair" d="M25.369,10.234c0.97,1.081 1.603,2.524 1.631,4.266c0.056,3.488 -3.383,4.477 -3.383,4.477c-0.154,-1.898 -1.162,-4.344 -2.582,-6.112c0.013,0.166 0.015,0.339 0.004,0.518c-0.176,2.979 -2.069,5.253 -2.069,5.253c-0.363,-1.96 -0.849,-3.924 -2.016,-5.572c-0.679,0.931 -1.786,1.667 -2.954,2.436c0.522,-1.004 1,-3.322 1,-5.5l0.909,0.273l0.091,-0.273l-0,-1l3,-0l0.102,0.204c0.272,-0.622 0.601,-1.189 0.898,-1.204c3.171,-0.912 3.839,0.461 6.5,-0c-0.132,1.033 -0.548,1.757 -1.131,2.234Z" style="fill:#2d1413;"/>
    </g>
</svg>
